<svg width="20" height="10" viewBox="0 0 20 10" fill="none" xmlns="http://www.w3.org/2000/svg">
<path d="M0.440231 0.382399C0.722196 0.137549 1.10457 0 1.50327 0C1.90197 0 2.28434 0.137549 2.56631 0.382399L10.0091 6.84743L17.4518 0.382399C17.7354 0.144488 18.1152 0.0128435 18.5095 0.0158193C18.9037 0.018795 19.2808 0.156153 19.5596 0.398309C19.8384 0.640464 19.9965 0.968042 19.9999 1.31049C20.0034 1.65294 19.8518 1.98285 19.5779 2.22918L11.0721 9.6176C10.7902 9.86245 10.4078 10 10.0091 10C9.61038 10 9.228 9.86245 8.94604 9.6176L0.440231 2.22918C0.158351 1.98425 0 1.65211 0 1.30579C0 0.959466 0.158351 0.627323 0.440231 0.382399Z" fill="url(#paint0_linear_409_1170)"/>
<defs>
<linearGradient id="paint0_linear_409_1170" x1="-411.231" y1="4.25472e-08" x2="-411.205" y2="10.0015" gradientUnits="userSpaceOnUse">
<stop stop-color="white"/>
<stop offset="1" stop-color="#E6E7E8"/>
</linearGradient>
</defs>
</svg>
