<svg width="20" height="20" viewBox="0 0 20 20" fill="none" xmlns="http://www.w3.org/2000/svg">
<path d="M10 0C12.5 0 14.75 0.9 16.5 2.4C15.4013 3.33799 14.5194 4.50333 13.9151 5.81549C13.3108 7.12766 12.9986 8.55538 13 10C13 13.04 14.36 15.77 16.5 17.6C14.75 19.1 12.5 20 10 20C7.5 20 5.25 19.1 3.50001 17.6C4.59869 16.662 5.48064 15.4967 6.08493 14.1845C6.68922 12.8723 7.00143 11.4446 7 10C7 6.96 5.64 4.23 3.50001 2.4C5.25 0.9 7.5 0 10 0ZM20 10C20 12.32 19.21 14.45 17.88 16.15C16.9782 15.3989 16.2528 14.4586 15.755 13.3958C15.2573 12.3329 14.9996 11.1736 15 10C15 7.53 16.12 5.32 17.88 3.85C19.2564 5.60419 20.0031 7.77024 20 10ZM9.76839e-06 10C9.76839e-06 7.68 0.790009 5.55 2.12001 3.85C3.02177 4.6011 3.74723 5.54141 4.24495 6.60425C4.74267 7.66708 5.00044 8.8264 5 10C5 12.47 3.88001 14.68 2.12001 16.15C0.743555 14.3958 -0.00311507 12.2298 9.76839e-06 10Z" fill="black"/>
</svg>
