<svg width="20" height="20" viewBox="0 0 20 20" fill="none" xmlns="http://www.w3.org/2000/svg">
<path d="M13.3764 12.7616L14.1517 9.81365C14.2184 9.60307 14.2144 9.3925 14.1397 9.18193C14.065 8.97136 13.9356 8.79589 13.7515 8.65551L11.3756 6.94462C11.2422 6.83933 11.0964 6.81758 10.9384 6.87934C10.7803 6.94111 10.6759 7.05938 10.6253 7.23415L9.84994 10.1821C9.78325 10.3927 9.78758 10.6033 9.86295 10.8139C9.93831 11.0244 10.0674 11.1999 10.2501 11.3403L12.6261 13.0512C12.7594 13.1565 12.9052 13.1786 13.0632 13.1175C13.2213 13.0564 13.3257 12.9378 13.3764 12.7616ZM1.9968 17.71L1.17147 17.2889C0.654595 17.0608 0.304455 16.6705 0.121048 16.1181C-0.0623583 15.5657 -0.0373482 15.0172 0.196078 14.4725L1.9968 10.3664V17.71ZM5.9984 20C5.44818 20 4.97732 19.7894 4.58583 19.3683C4.19434 18.9471 3.99827 18.447 3.9976 17.868V11.5772L6.67367 19.3156C6.72369 19.4385 6.76537 19.5571 6.79872 19.6715C6.83207 19.7859 6.89042 19.8954 6.97379 20H5.9984ZM11.1505 19.8684C10.6336 20.0614 10.1167 20.0351 9.59984 19.7894C9.08297 19.5438 8.73283 19.1489 8.54942 18.605L4.12265 5.73384C3.93924 5.18986 3.96425 4.6501 4.19768 4.11455C4.43111 3.579 4.80626 3.21506 5.32313 3.02274L12.8511 0.127395C13.368 -0.0656279 13.8809 -0.0393065 14.3898 0.206359C14.8986 0.452025 15.2444 0.846845 15.4272 1.39082L19.879 14.262C20.0624 14.8059 20.0373 15.3457 19.8039 15.8812C19.5705 16.4168 19.1953 16.7807 18.6785 16.973L11.1505 19.8684Z" fill="black"/>
</svg>
