<svg width="20" height="20" viewBox="0 0 20 20" fill="none" xmlns="http://www.w3.org/2000/svg">
<path d="M1 19.7983C0.447715 19.7983 0 19.3506 0 18.7983V7.00019C0 6.66584 0.167101 6.35361 0.4453 6.16814L9.4453 0.168141C9.7812 -0.0557924 10.2188 -0.055793 10.5547 0.16814L19.5547 6.16814C19.8329 6.35361 20 6.66584 20 7.00019V18.7983C20 19.3506 19.5523 19.7983 19 19.7983H13.5C12.9477 19.7983 12.5 19.3506 12.5 18.7983V13.0206C12.5 12.4683 12.0523 12.0206 11.5 12.0206H8.5C7.94772 12.0206 7.5 12.4683 7.5 13.0206V18.7983C7.5 19.3506 7.05228 19.7983 6.5 19.7983H1Z" fill="black"/>
</svg>
