<svg width="20" height="20" viewBox="0 0 20 20" fill="none" xmlns="http://www.w3.org/2000/svg">
<path d="M5 16.6667C5.46296 16.6667 5.85667 16.5048 6.18111 16.1811C6.50555 15.8574 6.66741 15.4637 6.66667 15C6.66593 14.5363 6.50407 14.143 6.18111 13.82C5.85815 13.497 5.46444 13.3348 5 13.3333C4.53556 13.3319 4.14222 13.4941 3.82 13.82C3.49778 14.1459 3.33556 14.5393 3.33333 15C3.33111 15.4607 3.49333 15.8544 3.82 16.1811C4.14667 16.5078 4.54 16.6696 5 16.6667ZM5 6.66667C5.46296 6.66667 5.85667 6.50481 6.18111 6.18111C6.50555 5.85741 6.66741 5.4637 6.66667 5C6.66593 4.5363 6.50407 4.14296 6.18111 3.82C5.85815 3.49704 5.46444 3.33481 5 3.33333C4.53556 3.33185 4.14222 3.49407 3.82 3.82C3.49778 4.14593 3.33556 4.53926 3.33333 5C3.33111 5.46074 3.49333 5.85444 3.82 6.18111C4.14667 6.50778 4.54 6.66963 5 6.66667ZM10 11.6667C10.463 11.6667 10.8567 11.5048 11.1811 11.1811C11.5056 10.8574 11.6674 10.4637 11.6667 10C11.6659 9.5363 11.5041 9.14296 11.1811 8.82C10.8581 8.49704 10.4644 8.33481 10 8.33333C9.53555 8.33185 9.14222 8.49407 8.82 8.82C8.49778 9.14592 8.33556 9.53926 8.33333 10C8.33111 10.4607 8.49333 10.8544 8.82 11.1811C9.14667 11.5078 9.54 11.6696 10 11.6667ZM15 16.6667C15.463 16.6667 15.8567 16.5048 16.1811 16.1811C16.5056 15.8574 16.6674 15.4637 16.6667 15C16.6659 14.5363 16.5041 14.143 16.1811 13.82C15.8581 13.497 15.4644 13.3348 15 13.3333C14.5356 13.3319 14.1422 13.4941 13.82 13.82C13.4978 14.1459 13.3356 14.5393 13.3333 15C13.3311 15.4607 13.4933 15.8544 13.82 16.1811C14.1467 16.5078 14.54 16.6696 15 16.6667ZM15 6.66667C15.463 6.66667 15.8567 6.50481 16.1811 6.18111C16.5056 5.85741 16.6674 5.4637 16.6667 5C16.6659 4.5363 16.5041 4.14296 16.1811 3.82C15.8581 3.49704 15.4644 3.33481 15 3.33333C14.5356 3.33185 14.1422 3.49407 13.82 3.82C13.4978 4.14593 13.3356 4.53926 13.3333 5C13.3311 5.46074 13.4933 5.85444 13.82 6.18111C14.1467 6.50778 14.54 6.66963 15 6.66667ZM2.22222 20C1.61111 20 1.08815 19.7826 0.653333 19.3478C0.218519 18.913 0.000740741 18.3896 0 17.7778V2.22222C0 1.61111 0.217778 1.08815 0.653333 0.653333C1.08889 0.218519 1.61185 0.000740741 2.22222 0H17.7778C18.3889 0 18.9122 0.217778 19.3478 0.653333C19.7833 1.08889 20.0007 1.61185 20 2.22222V17.7778C20 18.3889 19.7826 18.9122 19.3478 19.3478C18.913 19.7833 18.3896 20.0007 17.7778 20H2.22222Z" fill="black"/>
</svg>
