<svg width="20" height="20" viewBox="0 0 20 20" fill="none" xmlns="http://www.w3.org/2000/svg">
<path d="M8.88889 20H2.22222C1.61111 20 1.08815 19.7826 0.653333 19.3478C0.218519 18.913 0.000740741 18.3896 0 17.7778V2.22222C0 1.61111 0.217778 1.08815 0.653333 0.653333C1.08889 0.218519 1.61185 0.000740741 2.22222 0H8.88889V20ZM6.66667 17.7778V2.22222H2.22222V17.7778H6.66667ZM11.1111 8.88889V0H17.7778C18.3889 0 18.9122 0.217778 19.3478 0.653333C19.7833 1.08889 20.0007 1.61185 20 2.22222V8.88889H11.1111ZM13.3333 6.66667H17.7778V2.22222H13.3333V6.66667ZM11.1111 20V11.1111H20V17.7778C20 18.3889 19.7826 18.9122 19.3478 19.3478C18.913 19.7833 18.3896 20.0007 17.7778 20H11.1111ZM13.3333 17.7778H17.7778V13.3333H13.3333V17.7778Z" fill="black"/>
</svg>
