<svg width="20" height="20" viewBox="0 0 20 20" fill="none" xmlns="http://www.w3.org/2000/svg">
<path d="M9.05 12.7778L13.2 9.83333C13.5 9.61111 13.65 9.29629 13.65 8.88889C13.65 8.48148 13.5 8.16666 13.2 7.94444L9.05 5C8.71667 4.75926 8.375 4.74074 8.025 4.94444C7.675 5.14815 7.5 5.47222 7.5 5.91667V11.8611C7.5 12.3056 7.675 12.6296 8.025 12.8333C8.375 13.037 8.71667 13.0185 9.05 12.7778ZM2 17.7778C1.45 17.7778 0.979333 17.5604 0.588 17.1256C0.196667 16.6907 0.000666667 16.1674 0 15.5556V2.22222C0 1.61111 0.196 1.08815 0.588 0.653333C0.98 0.218519 1.45067 0.000740741 2 0H18C18.55 0 19.021 0.217778 19.413 0.653333C19.805 1.08889 20.0007 1.61185 20 2.22222V15.5556C20 16.1667 19.8043 16.69 19.413 17.1256C19.0217 17.5611 18.5507 17.7785 18 17.7778H14V18.8889C14 19.2037 13.904 19.4678 13.712 19.6811C13.52 19.8944 13.2827 20.0007 13 20H7C6.71667 20 6.47933 19.8933 6.288 19.68C6.09667 19.4667 6.00067 19.203 6 18.8889V17.7778H2ZM2 15.5556H18V2.22222H2V15.5556Z" fill="black"/>
</svg>
