<svg width="20" height="20" viewBox="0 0 20 20" fill="none" xmlns="http://www.w3.org/2000/svg">
<path d="M0.34 12.6287C0.94 12.4088 1.56 12.2989 2.22 12.2989C3.56 12.2989 4.73 12.7187 5.73 13.5582L2.59 16.6967C1.54797 15.5239 0.77948 14.1344 0.34 12.6287ZM13.56 7.80109C15.53 9.27036 17.66 9.63018 19.94 8.88056C19.97 9.09045 20 9.47026 20 10C20 11.0295 19.75 12.1789 19.28 13.4483C18.81 14.7077 18.23 15.7272 17.55 16.4968L11.22 10.1899L13.56 7.80109ZM6.77 14.6377C7.83 16.1669 8.05 17.8361 7.42 19.6552C6 19.2454 4.73 18.6057 3.67 17.7262L6.77 14.6377ZM10.19 11.2194L16.5 17.5463C14.33 19.4453 11.78 20.2449 8.88 19.9351C9.09 19.2754 9.2 18.5558 9.2 17.7761C9.2 17.1565 9.06 16.4268 8.78 15.5972C8.5 14.7676 8.17 14.088 7.8 13.5582L10.19 11.2194ZM6.81 12.4988C5.89856 11.6844 4.78156 11.1348 3.58 10.9095C2.36 10.6797 1.19 10.7496 0.0599999 11.1294C0.0299999 10.9095 0 10.5297 0 10C0 8.97051 0.25 7.82108 0.72 6.55171C1.19 5.29233 1.77 4.27284 2.45 3.50322L9.11 10.1899L6.81 12.4988ZM13.56 5.73212C12.22 4.08293 11.91 2.28383 12.63 0.344789C13.25 0.504709 13.96 0.804561 14.76 1.26433C15.55 1.71411 16.2 2.16389 16.7 2.59367L13.56 5.73212ZM19.66 7.3813C19.06 7.59119 18.44 7.70114 17.78 7.70114C16.69 7.70114 15.64 7.3813 14.64 6.72163L17.73 3.67314C18.61 4.77259 19.25 6.00198 19.66 7.3813ZM10.19 9.11044L3.5 2.45374C5.67 0.554685 8.22 -0.244919 11.13 0.0649275C10.91 0.7246 10.8 1.44424 10.8 2.22386C10.8 2.9435 10.96 3.7531 11.29 4.66265C11.62 5.5622 12 6.28184 12.5 6.81158L10.19 9.11044Z" fill="black"/>
</svg>
