<svg width="179" height="35" viewBox="0 0 179 35" fill="none" xmlns="http://www.w3.org/2000/svg">
<path d="M56.56 25.7162C56.52 25.8869 56.5 26.0662 56.5 26.25C56.5 27.4575 57.396 28.4375 58.5 28.4375H60.252L59.5 35H54C51.792 35 50 33.04 50 30.625L50.12 29.5575L52.5 8.75H50.968L51.5 4.375H53L53.5 0H59.5L59 4.375H63L62.5 8.75H58.5L56.56 25.7162Z" fill="url(#paint0_linear_49_42)"/>
<path d="M134.793 33.2212C132.93 32.0279 132 30.3328 132 28.1401C132 27.9243 132.025 27.5985 132.08 27.1626H139.032C138.952 28.0784 139.187 28.8005 139.735 29.3333C140.284 29.866 141.113 30.1302 142.236 30.1302C143.249 30.1302 144.053 29.9277 144.64 29.5138C145.226 29.1043 145.519 28.5231 145.519 27.779C145.519 27.0349 145.146 26.3788 144.405 25.8989C143.664 25.419 142.512 24.873 140.95 24.2698C139.438 23.693 138.207 23.1426 137.26 22.623C136.31 22.1035 135.484 21.399 134.781 20.5052C134.077 19.6113 133.725 18.493 133.725 17.1412C133.7 15.4769 134.14 14.0327 135.053 12.7998C135.966 11.5714 137.227 10.6291 138.843 9.97748C140.456 9.32583 142.307 9 144.393 9C146.269 9 147.936 9.27299 149.393 9.81456C150.851 10.3561 151.986 11.1399 152.79 12.1658C153.598 13.1917 154 14.4025 154 15.7983C154 16.1594 153.987 16.4235 153.962 16.5953H146.851C146.876 16.4984 146.889 16.3531 146.889 16.1594C146.889 15.4857 146.633 14.9353 146.126 14.5126C145.62 14.0899 144.92 13.8786 144.037 13.8786C143.098 13.8786 142.336 14.0899 141.75 14.5126C141.164 14.9353 140.87 15.5077 140.87 16.2298C140.87 16.9519 141.235 17.5639 141.963 18.0571C142.692 18.5502 143.827 19.1226 145.364 19.7743C146.901 20.4259 148.158 21.0291 149.133 21.5839C150.109 22.1387 150.951 22.8784 151.655 23.8075C152.358 24.7365 152.71 25.8769 152.71 27.2242C152.71 28.7213 152.279 30.0598 151.42 31.2398C150.562 32.4198 149.322 33.3445 147.709 34.0049C146.093 34.6698 144.208 35 142.047 35C139.078 35 136.661 34.4012 134.802 33.208L134.793 33.2212Z" fill="url(#paint1_linear_49_42)"/>
<path d="M116 9L111.618 35H105.046L105.782 30.6363C104.888 33.18 102.447 35 99.5727 35C99.2002 35 98.8365 34.9697 98.486 34.9133C95.3749 34.3977 93 31.724 93 28.5V28.4697L93.3462 26.4113L96.282 9H102.855L100.651 22.0867L100.116 25.2457L99.9276 26.381C99.9495 28.1533 101.413 29.5833 103.21 29.5833C104.467 29.5833 105.563 28.8813 106.11 27.8543C106.207 27.6853 106.281 27.5033 106.338 27.317L106.492 26.42L109.427 9H116Z" fill="url(#paint2_linear_49_42)"/>
<path d="M82.0909 0H73.3636L72.6916 5.39L71.6182 14.0044L69 35H75.5455L77.1818 21.875H82.0909C88.1171 21.875 93 16.9794 93 10.9375C93 4.89562 88.1171 0 82.0909 0ZM82.0909 15.3125H77.9978L78.2771 13.0638L78.9229 7.93625L79.0931 6.5625H82.0909C84.504 6.5625 86.4545 8.5225 86.4545 10.9375C86.4545 13.3525 84.504 15.3125 82.0909 15.3125Z" fill="url(#paint3_linear_49_42)"/>
<path d="M129 28.4375L128.12 35H121.682C119.098 35 117 33.04 117 30.625L117.14 29.5575L119.926 8.75L121.097 0H128.12L126.949 8.75L124.679 25.7163C124.632 25.8869 124.608 26.0662 124.608 26.25C124.608 27.4575 125.657 28.4375 126.949 28.4375H129Z" fill="url(#paint4_linear_49_42)"/>
<path d="M171.369 9.31455C165.584 7.75185 159.387 12.1642 157.532 19.1679C155.671 26.176 158.85 33.1228 164.634 34.6855C170.05 36.1476 175.822 32.3787 178.064 26.141H171.828C170.432 27.9138 168.333 28.8155 166.334 28.2728C164.296 27.7212 162.913 25.8214 162.622 23.5146H178.757C179.924 16.9749 176.789 10.7853 171.369 9.31455ZM163.004 20.0127C164.092 16.8961 166.972 14.9963 169.664 15.7273C171.559 16.2439 172.891 17.9248 173.302 20.0127H163.004Z" fill="url(#paint5_linear_49_42)"/>
<path d="M40.7154 9.31455C35.1938 7.75185 29.2789 12.1642 27.5074 19.1679C25.7317 26.176 28.7657 33.1228 34.2873 34.6855C39.4571 36.1476 44.9663 32.3787 47.1063 26.141H41.1542C39.8213 27.9138 37.818 28.8155 35.9099 28.2728C33.9645 27.7212 32.6441 25.8214 32.3667 23.5146H47.7685C48.8819 16.9749 45.8893 10.7853 40.7154 9.31455ZM32.731 20.0127C33.7699 16.8961 36.5183 14.9963 39.0887 15.7273C40.8975 16.2439 42.1683 17.9248 42.5615 20.0127H32.731Z" fill="url(#paint6_linear_49_42)"/>
<path d="M24 10.9375C24 4.89562 19.1171 0 13.0909 0H4.36364L3.69165 5.39L2.61818 14.0044L0 35H13.0909C19.1171 35 24 30.1044 24 24.0625C24 21.5994 23.1884 19.3288 21.8182 17.5C23.1884 15.6713 24 13.4006 24 10.9375ZM13.0909 28.4375H7.36582L8.44799 19.7269H13.0735C15.4691 19.7269 17.4153 21.6781 17.4153 24.0844C17.4153 26.4906 15.4778 28.4287 13.0909 28.4375ZM13.0909 15.2731H9.00655L9.28583 13.0156L9.91854 7.95375L10.0931 6.5625H13.0909C15.4909 6.5625 17.4371 8.51375 17.4371 10.9156C17.4371 13.3175 15.4909 15.2731 13.0909 15.2731Z" fill="url(#paint7_linear_49_42)"/>
<defs>
<linearGradient id="paint0_linear_49_42" x1="-217.3" y1="1.48915e-07" x2="-216.822" y2="34.9989" gradientUnits="userSpaceOnUse">
<stop stop-color="white"/>
<stop offset="1" stop-color="#E6E7E8"/>
</linearGradient>
<linearGradient id="paint1_linear_49_42" x1="142.998" y1="9.00881" x2="142.998" y2="35.0132" gradientUnits="userSpaceOnUse">
<stop stop-color="#FEE000"/>
<stop offset="1" stop-color="#D0B907"/>
</linearGradient>
<linearGradient id="paint2_linear_49_42" x1="104.502" y1="9" x2="104.502" y2="35" gradientUnits="userSpaceOnUse">
<stop stop-color="#FEE000"/>
<stop offset="1" stop-color="#D0B907"/>
</linearGradient>
<linearGradient id="paint3_linear_49_42" x1="81" y1="0" x2="81" y2="35" gradientUnits="userSpaceOnUse">
<stop stop-color="#FEE000"/>
<stop offset="1" stop-color="#D0B907"/>
</linearGradient>
<linearGradient id="paint4_linear_49_42" x1="123.002" y1="0" x2="123.002" y2="35" gradientUnits="userSpaceOnUse">
<stop stop-color="#FEE000"/>
<stop offset="1" stop-color="#D0B907"/>
</linearGradient>
<linearGradient id="paint5_linear_49_42" x1="167.999" y1="8.99938" x2="167.999" y2="35.0007" gradientUnits="userSpaceOnUse">
<stop stop-color="#FEE000"/>
<stop offset="1" stop-color="#D0B907"/>
</linearGradient>
<linearGradient id="paint6_linear_49_42" x1="37.4993" y1="8.99938" x2="37.4993" y2="35.0007" gradientUnits="userSpaceOnUse">
<stop stop-color="white"/>
<stop offset="1" stop-color="#E6E7E8"/>
</linearGradient>
<linearGradient id="paint7_linear_49_42" x1="12" y1="0" x2="12" y2="35" gradientUnits="userSpaceOnUse">
<stop stop-color="white"/>
<stop offset="1" stop-color="#E6E7E8"/>
</linearGradient>
</defs>
</svg>
